<svg class="background-lines" viewBox="0 0 3840 599" fill="none" xmlns="http://www.w3.org/2000/svg">
<g opacity="0.8">
<path d="M-13.7754 577.703C108.656 578.653 214.006 588.586 332.298 591.378C355.852 592.128 378.878 592.404 401.378 592.393C604.176 592.14 770.102 569.393 966.504 565.42C1041.75 564.316 1071.85 578.664 1124.53 586.389C1139.58 588.045 1156.51 588.873 1173.89 589.513C1327.7 595.219 1478.2 591.908 1628.7 588.597C1892.08 583.078 2132.88 586.389 2388.73 596.322C2584.37 602.945 2734.87 578.664 2907.95 577.56C3043.4 576.456 3156.27 595.219 3300.3 591.588C3316.4 591.643 3332.58 591.72 3348.76 591.786C3429.66 592.151 3511.23 592.46 3592.72 589.7C3690.55 586.389 3780.85 577.56 3887.55 578.984" stroke="white" stroke-width="2" stroke-miterlimit="10"/>
<path d="M-13.7041 567.396C108.878 568.301 215.055 577.395 333.122 580.596C356.901 581.247 379.928 581.611 402.653 581.589C591.003 581.357 748.576 561.999 928.499 556.193C941.893 555.763 955.363 555.376 969.058 555.134C1044.31 553.831 1074.93 567.925 1127.53 575.331C1142.51 576.909 1159.29 577.682 1176.6 578.267C1204.51 579.216 1232.28 579.878 1259.97 580.309C1305.95 581.026 1351.85 581.103 1397.61 580.916C1420.41 580.816 1443.06 580.629 1465.71 580.364C1488.66 580.099 1511.61 579.757 1534.49 579.37C1566.01 578.852 1597.47 578.223 1629.07 577.616C1830.59 573.753 2020.97 574.757 2213.69 579.779C2271.63 581.28 2329.65 583.277 2388.87 585.363C2583.62 592.206 2735.62 568.047 2908.7 566.899C3044.15 565.994 3157.32 584.414 3300.75 581.136C3313.92 581.203 3327.16 581.291 3340.33 581.368C3343.19 581.39 3346.12 581.401 3348.98 581.423C3369.23 581.545 3389.54 581.622 3409.79 581.644C3470.51 581.644 3531.46 581.191 3592.49 579.117C3644.71 577.329 3694.91 574.051 3746.68 571.667C3769.1 570.607 3791.83 569.713 3815.16 569.139C3838.63 568.576 3862.64 568.345 3887.55 568.665" stroke="white" stroke-width="2" stroke-miterlimit="10"/>
<path d="M-13.5459 557.086C109.187 557.958 215.665 566.688 334.108 569.823C358.038 570.452 381.215 570.816 404.166 570.794C591.989 570.562 750.315 551.601 930.914 545.906C944.459 545.487 958.004 545.101 971.85 544.869C1047.25 543.566 1078.33 557.208 1130.78 564.293C1145.68 565.805 1162.38 566.512 1179.54 567.042C1207.23 567.902 1234.85 568.487 1262.39 568.852C1308.22 569.47 1354.12 569.481 1399.87 569.381C1422.6 569.326 1445.17 569.183 1467.67 568.973C1490.47 568.763 1513.27 568.476 1536 568.156C1567.23 567.726 1598.53 567.196 1629.91 566.666C1830.38 563.278 2021.89 564.216 2214.22 569.061C2272.17 570.496 2330.26 572.416 2389.56 574.436C2584.15 581.036 2736.83 557.318 2909.98 556.27C3045.43 555.453 3158.84 573.642 3301.66 570.706C3314.75 570.794 3327.92 570.904 3341.09 571.015C3343.95 571.037 3346.81 571.059 3349.74 571.081C3369.99 571.225 3390.23 571.313 3410.55 571.302C3471.2 571.18 3531.92 570.64 3592.8 568.543C3645.02 566.744 3695.22 563.521 3747.14 561.269C3769.56 560.254 3792.36 559.382 3815.62 558.83C3839.09 558.278 3863.1 558.058 3888.01 558.356" stroke="white" stroke-width="2" stroke-miterlimit="10"/>
<path d="M-13.3984 546.789C109.56 547.617 216.264 555.994 335.008 559.051C359.088 559.669 382.416 560.022 405.517 560C592.814 559.78 751.892 541.194 933.169 535.62C946.789 535.212 960.56 534.836 974.481 534.594C1050.03 533.291 1081.49 546.48 1133.86 553.235C1148.68 554.67 1165.24 555.321 1182.32 555.795C1209.79 556.568 1237.18 557.076 1264.64 557.374C1310.32 557.881 1356.15 557.826 1401.9 557.826C1424.55 557.815 1446.97 557.727 1469.4 557.572C1492.05 557.418 1514.7 557.186 1537.27 556.943C1568.2 556.601 1599.28 556.16 1630.58 555.707C1830.07 552.804 2022.56 553.731 2214.67 558.334C2272.62 559.724 2330.78 561.556 2390.08 563.499C2584.53 569.867 2737.89 546.569 2911.11 545.63C3046.56 544.891 3160.26 562.87 3302.48 560.276C3315.58 560.387 3328.67 560.519 3341.77 560.662C3344.62 560.685 3347.48 560.718 3350.34 560.74C3370.59 560.916 3390.83 560.994 3411.15 560.972C3471.65 560.74 3532.22 560.1 3593.02 557.992C3645.25 556.182 3695.51 553.014 3747.44 550.895C3769.94 549.913 3792.66 549.074 3815.99 548.544C3839.47 548.014 3863.47 547.794 3888.45 548.07" stroke="white" stroke-width="2" stroke-miterlimit="10"/>
<path d="M-13.3213 536.481C109.787 537.276 216.793 545.288 335.913 548.279C360.068 548.886 383.621 549.228 406.874 549.206C593.644 548.986 753.399 530.731 935.428 525.334C949.199 524.925 963.045 524.561 977.117 524.329C1052.82 523.027 1084.72 535.775 1136.95 542.198C1151.7 543.555 1168.18 544.151 1185.11 544.571C1212.42 545.255 1239.59 545.675 1266.83 545.906C1312.35 546.304 1358.18 546.204 1403.93 546.282C1426.51 546.315 1448.86 546.282 1471.06 546.171C1493.63 546.072 1516.06 545.895 1538.48 545.719C1569.18 545.465 1600.03 545.123 1631.11 544.736C1829.55 542.319 2023.09 543.191 2214.9 547.595C2272.84 548.93 2331.09 550.674 2390.38 552.55C2584.68 558.676 2738.71 535.819 2912.02 534.98C3047.39 534.329 3161.39 552.076 3303.09 549.824C3316.11 549.968 3329.12 550.122 3342.14 550.277C3345 550.31 3347.86 550.343 3350.72 550.365C3370.96 550.564 3391.21 550.641 3411.52 550.597C3471.87 550.255 3532.37 549.504 3592.95 547.385C3645.1 545.553 3695.44 542.463 3747.51 540.465C3770.01 539.527 3792.74 538.71 3816.14 538.203C3839.62 537.684 3863.7 537.474 3888.61 537.739" stroke="white" stroke-width="2" stroke-miterlimit="10"/>
<path d="M-13.1729 526.173C110.086 526.923 217.393 534.583 336.814 537.508C361.12 538.104 384.748 538.435 408.301 538.424C594.545 538.214 755.052 520.334 937.759 515.059C951.68 514.662 965.677 514.308 979.899 514.066C1055.75 512.774 1088.03 525.058 1140.18 531.161C1154.85 532.442 1171.18 532.983 1188.04 533.347C1215.13 533.943 1242.14 534.274 1269.23 534.45C1314.53 534.737 1360.44 534.583 1406.11 534.748C1428.54 534.826 1450.81 534.837 1472.94 534.793C1495.36 534.748 1517.63 534.638 1539.91 534.517C1570.31 534.362 1601.01 534.097 1631.86 533.799C1829.32 531.857 2023.91 532.674 2215.35 536.89C2273.29 538.17 2331.61 539.836 2390.91 541.635C2584.98 547.529 2739.77 525.091 2913.14 524.352C3048.52 523.778 3162.82 541.304 3303.91 539.406C3316.86 539.571 3329.8 539.748 3342.82 539.936C3345.68 539.969 3348.54 540.002 3351.4 540.035C3371.64 540.256 3391.88 540.333 3412.2 540.267C3472.47 539.803 3532.75 538.964 3593.17 536.834C3645.32 534.991 3695.66 531.956 3747.89 530.091C3770.39 529.186 3793.19 528.402 3816.52 527.906C3839.99 527.409 3864.07 527.199 3888.98 527.442" stroke="white" stroke-width="2" stroke-miterlimit="10"/>
<path d="M-13.0205 515.864C110.389 516.582 217.996 523.877 337.794 526.724C362.175 527.309 386.029 527.629 409.733 527.618C595.449 527.409 756.71 509.904 940.094 504.761C954.09 504.364 968.237 504.033 982.61 503.79C1058.61 502.499 1091.35 514.33 1143.34 520.113C1157.94 521.328 1174.2 521.802 1190.83 522.111C1217.69 522.619 1244.55 522.873 1271.49 522.972C1316.64 523.149 1362.47 522.939 1408.15 523.193C1430.5 523.314 1452.62 523.369 1474.59 523.391C1496.87 523.402 1518.99 523.347 1541.11 523.292C1571.29 523.226 1601.69 523.06 1632.39 522.828C1828.79 521.372 2024.44 522.133 2215.65 526.151C2273.67 527.365 2331.99 528.954 2391.29 530.687C2585.21 536.349 2740.67 514.33 2914.12 513.701C3049.5 513.204 3164.03 530.51 3304.59 528.954C3317.46 529.142 3330.4 529.34 3343.27 529.561C3346.13 529.605 3348.99 529.638 3351.85 529.671C3372.09 529.925 3392.33 529.991 3412.65 529.914C3472.78 529.34 3532.9 528.391 3593.25 526.25C3645.32 524.396 3695.74 521.416 3748.04 519.683C3770.54 518.811 3793.34 518.061 3816.74 517.586C3840.22 517.1 3864.3 516.891 3889.28 517.123" stroke="white" stroke-width="2" stroke-miterlimit="10"/>
<path d="M-12.9434 505.567C110.692 506.24 218.525 513.183 338.624 515.964C363.155 516.527 387.16 516.858 411.014 516.836C596.204 516.626 758.141 499.497 942.202 494.486C956.349 494.1 970.647 493.769 985.095 493.526C1061.25 492.235 1094.36 503.614 1146.2 509.066C1160.73 510.203 1176.83 510.622 1193.39 510.876C1220.1 511.295 1246.74 511.461 1273.53 511.505C1318.53 511.582 1364.35 511.295 1410.03 511.648C1432.3 511.814 1454.35 511.924 1476.18 511.991C1498.3 512.057 1520.27 511.991 1542.24 512.079C1572.12 512.178 1602.37 512.024 1632.92 511.869C1828.34 510.898 2025.05 511.604 2215.88 515.423C2273.9 516.582 2332.29 518.083 2391.59 519.749C2585.36 525.168 2741.5 503.592 2915.03 503.062C3050.33 502.653 3165.23 519.738 3305.12 518.524C3317.99 518.734 3330.78 518.966 3343.65 519.198C3346.51 519.242 3349.37 519.286 3352.15 519.319C3372.39 519.595 3392.64 519.672 3412.88 519.562C3472.85 518.866 3532.83 517.829 3593.03 515.677C3645.1 513.801 3695.52 510.887 3747.97 509.287C3770.54 508.459 3793.34 507.741 3816.75 507.278C3840.22 506.814 3864.38 506.605 3889.29 506.814" stroke="white" stroke-width="2" stroke-miterlimit="10"/>
<path d="M-12.7949 495.259C110.991 495.899 219.125 502.477 339.525 505.181C364.131 505.733 388.362 506.053 412.442 506.031C597.105 505.832 759.795 489.078 944.533 484.189C958.831 483.814 973.203 483.494 987.802 483.24C1064.11 481.949 1097.67 492.875 1149.36 498.007C1163.81 499.067 1179.84 499.431 1196.24 499.63C1222.73 499.961 1249.14 500.049 1275.78 500.027C1320.63 499.994 1366.38 499.652 1412.06 500.093C1434.26 500.303 1456.16 500.457 1477.9 500.59C1499.88 500.711 1521.7 500.766 1543.45 500.855C1573.09 500.965 1603.04 500.987 1633.45 500.91C1827.82 500.424 2025.57 501.075 2216.1 504.695C2274.12 505.799 2332.59 507.223 2391.96 508.812C2585.58 513.999 2742.4 492.842 2916 492.423C3051.3 492.091 3166.51 508.956 3305.8 508.084C3318.59 508.315 3331.38 508.569 3344.1 508.834C3346.96 508.889 3349.74 508.934 3352.6 508.967C3372.84 509.276 3393.09 509.342 3413.33 509.22C3473.23 508.415 3532.98 507.278 3593.1 505.104C3645.17 503.216 3695.67 500.369 3748.19 498.89C3770.77 498.095 3793.57 497.411 3816.97 496.959C3840.52 496.506 3864.6 496.307 3889.51 496.506" stroke="white" stroke-width="2" stroke-miterlimit="10"/>
<path d="M-12.6465 484.95C111.29 485.546 219.65 491.771 340.501 494.409C365.258 494.95 389.564 495.259 413.869 495.237C598.006 495.038 761.448 478.66 946.864 473.903C961.312 473.527 975.835 473.218 990.584 472.976C1067.04 471.684 1100.98 482.158 1152.6 486.97C1166.97 487.952 1182.85 488.25 1199.18 488.405C1225.51 488.648 1251.7 488.648 1278.19 488.559C1322.81 488.416 1368.64 488.019 1414.32 488.548C1436.44 488.802 1458.26 489.001 1479.78 489.189C1501.61 489.365 1523.28 489.476 1544.87 489.63C1574.22 489.84 1604.02 489.895 1634.2 489.939C1827.59 490.193 2026.4 490.524 2216.63 493.956C2274.72 495.005 2333.19 496.34 2392.56 497.863C2585.95 502.808 2743.53 482.092 2917.2 481.772C3052.5 481.529 3167.94 498.161 3306.7 497.643C3319.41 497.897 3332.13 498.183 3344.85 498.47C3347.71 498.526 3350.49 498.57 3353.35 498.625C3373.59 498.956 3393.84 499.022 3414.08 498.879C3473.83 497.963 3533.43 496.716 3593.4 494.541C3645.4 492.643 3695.96 489.851 3748.64 488.504C3771.21 487.754 3794.09 487.092 3817.49 486.661C3841.05 486.231 3865.13 486.032 3890.11 486.209" stroke="white" stroke-width="2" stroke-miterlimit="10"/>
<path d="M-12.5703 474.642C111.517 475.205 220.177 481.066 341.329 483.637C366.162 484.167 390.693 484.465 415.15 484.454C598.834 484.267 762.954 468.263 949.047 463.628C963.57 463.264 978.244 462.966 993.143 462.712C1069.75 461.432 1104.14 471.442 1155.61 475.934C1169.9 476.85 1185.71 477.082 1201.89 477.181C1228 477.335 1254.03 477.247 1280.37 477.104C1324.84 476.85 1370.6 476.397 1416.27 477.004C1438.32 477.302 1459.99 477.556 1481.44 477.799C1503.11 478.031 1524.63 478.207 1546.08 478.417C1575.2 478.715 1604.77 478.914 1634.72 478.98C1827.14 479.455 2026.92 479.995 2216.86 483.218C2274.95 484.211 2333.49 485.47 2392.86 486.915C2586.11 491.628 2744.36 471.331 2918.11 471.122C3053.41 470.956 3169.14 487.368 3307.3 487.202C3319.94 487.478 3332.58 487.787 3345.23 488.107C3348.09 488.163 3350.87 488.218 3353.73 488.273C3373.97 488.637 3394.14 488.692 3414.46 488.527C3474.05 487.489 3533.5 486.154 3593.32 483.958C3645.32 482.037 3695.89 479.311 3748.64 478.097C3771.22 477.38 3794.09 476.751 3817.57 476.342C3841.12 475.923 3865.2 475.735 3890.19 475.89" stroke="white" stroke-width="2" stroke-miterlimit="10"/>
<path d="M-12.418 464.345C111.895 464.864 220.781 470.371 342.31 472.865C367.293 473.384 391.974 473.671 416.656 473.66C599.814 473.472 764.687 457.855 951.457 453.341C966.13 452.988 980.955 452.701 995.929 452.447C1072.68 451.167 1107.45 460.736 1158.85 464.897C1173.07 465.736 1188.72 465.912 1204.75 465.956C1230.63 466.023 1256.52 465.857 1282.63 465.647C1326.95 465.294 1372.71 464.764 1418.38 465.471C1440.35 465.813 1461.95 466.111 1483.17 466.409C1504.69 466.707 1526.06 466.928 1547.36 467.215C1576.18 467.601 1605.53 467.888 1635.4 468.042C1826.76 469.003 2027.68 469.477 2217.23 472.512C2275.33 473.439 2333.95 474.62 2393.32 476C2586.41 480.481 2745.41 460.88 2919.16 460.504C3054.39 460.217 3170.42 476.607 3308.06 476.783C3320.62 477.093 3333.26 477.413 3345.83 477.755C3348.61 477.821 3351.47 477.876 3354.26 477.931C3374.5 478.318 3394.67 478.373 3414.98 478.196C3474.51 477.048 3533.73 475.614 3593.48 473.406C3645.4 471.475 3696.04 468.815 3748.94 467.722C3771.52 467.038 3794.47 466.442 3817.87 466.045C3841.43 465.647 3865.58 465.449 3890.49 465.592" stroke="white" stroke-width="2" stroke-miterlimit="10"/>
<path d="M-12.2695 454.037C112.194 454.523 221.381 459.666 343.211 462.094C368.344 462.59 393.176 462.877 418.009 462.866C600.64 462.69 766.265 447.448 953.637 443.055C968.461 442.713 983.361 442.426 998.486 442.172C1075.39 440.892 1110.61 450.009 1161.85 453.838C1176 454.6 1191.58 454.721 1207.45 454.71C1233.19 454.688 1258.77 454.434 1284.81 454.158C1328.91 453.695 1374.66 453.11 1420.34 453.905C1442.23 454.291 1463.68 454.644 1484.83 454.997C1506.2 455.35 1527.42 455.626 1548.56 455.979C1577.16 456.454 1606.28 456.84 1635.93 457.061C1826.31 458.507 2028.28 458.926 2217.53 461.763C2275.7 462.635 2334.32 463.727 2393.69 465.041C2586.56 469.279 2746.31 450.108 2920.14 449.843C3055.36 449.633 3171.7 465.813 3308.65 466.332C3321.22 466.663 3333.71 467.016 3346.28 467.38C3349.06 467.447 3351.92 467.513 3354.71 467.568C3374.95 467.987 3395.12 468.043 3415.36 467.833C3474.73 466.575 3533.88 465.03 3593.4 462.811C3645.32 460.869 3695.97 458.264 3749.02 457.304C3771.67 456.664 3794.54 456.09 3818.02 455.715C3841.57 455.328 3865.73 455.141 3890.71 455.262" stroke="white" stroke-width="2" stroke-miterlimit="10"/>
<path d="M-12.1934 443.728C112.42 444.17 221.909 448.96 344.114 451.321C369.323 451.807 394.306 452.094 419.364 452.072C601.469 451.895 767.846 437.029 955.895 432.769C970.795 432.426 985.92 432.162 1001.12 431.908C1078.18 430.627 1113.77 439.291 1164.94 442.801C1179.01 443.496 1194.44 443.552 1210.24 443.485C1235.75 443.375 1261.18 443.044 1287.07 442.702C1331.02 442.128 1376.77 441.477 1422.37 442.371C1444.19 442.801 1465.49 443.198 1486.56 443.607C1507.85 444.015 1528.85 444.346 1549.84 444.766C1578.21 445.328 1607.03 445.803 1636.53 446.112C1825.86 448.043 2028.88 448.397 2217.83 451.045C2276 451.862 2334.7 452.878 2394.14 454.114C2586.86 458.12 2747.29 439.369 2921.19 439.203C3056.42 439.082 3173.06 455.03 3309.41 455.891C3321.9 456.244 3334.39 456.619 3346.81 457.016C3349.59 457.094 3352.38 457.149 3355.24 457.215C3375.48 457.657 3395.64 457.712 3415.89 457.491C3475.18 456.111 3534.1 454.478 3593.55 452.248C3645.47 450.284 3696.19 447.746 3749.24 446.918C3771.89 446.311 3794.84 445.77 3818.25 445.417C3841.8 445.053 3865.96 444.865 3890.94 444.975" stroke="white" stroke-width="2" stroke-miterlimit="10"/>
<path d="M-12.0449 433.42C112.719 433.828 222.509 438.254 345.015 440.539C370.375 441.013 395.508 441.289 420.792 441.267C602.37 441.09 769.5 426.61 958.226 422.471C973.276 422.14 988.477 421.886 1003.9 421.622C1081.11 420.363 1117.15 428.553 1168.17 431.742C1182.17 432.36 1197.52 432.36 1213.17 432.239C1238.46 432.04 1263.74 431.621 1289.48 431.224C1333.27 430.539 1378.95 429.833 1424.62 430.815C1446.37 431.279 1467.59 431.742 1488.44 432.206C1509.58 432.669 1530.43 433.056 1551.27 433.541C1579.34 434.192 1608.01 434.766 1637.36 435.142C1825.71 437.559 2029.78 437.857 2218.36 440.307C2276.53 441.068 2335.22 441.995 2394.74 443.165C2587.31 446.94 2748.42 428.354 2922.4 428.553C3057.55 428.707 3174.48 444.236 3310.31 445.45C3322.73 445.825 3335.14 446.222 3347.56 446.642C3350.34 446.719 3353.13 446.785 3355.91 446.852C3376.15 447.326 3396.32 447.37 3416.56 447.127C3475.71 445.638 3534.48 443.894 3593.78 441.653C3645.62 439.678 3696.42 437.194 3749.62 436.499C3772.27 435.936 3795.22 435.428 3818.7 435.075C3842.33 434.722 3866.41 434.546 3891.39 434.634" stroke="white" stroke-width="2" stroke-miterlimit="10"/>
<path d="M-11.8965 423.123C113.093 423.487 223.109 427.548 345.992 429.778C371.426 430.241 396.785 430.506 422.22 430.495C603.271 430.33 771.153 416.225 960.557 412.207C975.757 411.887 991.108 411.633 1006.61 411.38C1083.97 410.11 1120.39 417.858 1171.33 420.728C1185.25 421.268 1200.45 421.213 1216.03 421.037C1241.16 420.75 1266.22 420.242 1291.73 419.778C1335.3 418.984 1381.05 418.211 1426.65 419.293C1448.33 419.801 1469.4 420.308 1490.16 420.827C1511.16 421.346 1531.85 421.787 1552.55 422.35C1580.39 423.101 1608.83 423.752 1637.96 424.204C1825.33 427.107 2030.46 427.339 2218.73 429.601C2276.98 430.297 2335.67 431.157 2395.19 432.25C2587.53 435.793 2749.39 417.626 2923.45 417.935C3058.6 418.178 3175.84 433.475 3311.06 435.031C3323.4 435.429 3335.74 435.859 3348.08 436.301C3350.87 436.378 3353.65 436.455 3356.43 436.521C3376.68 437.018 3396.84 437.062 3417.09 436.797C3476.08 435.197 3534.7 433.354 3593.85 431.091C3645.7 429.105 3696.49 426.687 3749.84 426.114C3772.49 425.584 3795.44 425.109 3819 424.778C3842.62 424.447 3866.78 424.27 3891.76 424.337" stroke="white" stroke-width="2" stroke-miterlimit="10"/>
<path d="M-11.8154 412.815C113.325 413.146 223.641 416.843 346.825 418.995C372.41 419.448 397.92 419.702 423.505 419.69C604.029 419.525 772.664 405.806 962.745 401.91C978.096 401.601 993.522 401.358 1009.17 401.094C1086.68 399.813 1123.55 407.12 1174.35 409.669C1188.19 410.133 1203.32 410.022 1218.74 409.791C1243.65 409.415 1268.48 408.83 1293.92 408.301C1337.34 407.396 1383.09 406.568 1428.69 407.738C1450.29 408.29 1471.28 408.852 1491.9 409.426C1512.75 410 1533.36 410.508 1553.76 411.126C1581.37 411.965 1609.52 412.715 1638.49 413.245C1824.81 416.633 2031.07 416.81 2218.96 418.874C2277.21 419.514 2335.98 420.286 2395.5 421.313C2587.69 424.613 2750.23 406.877 2924.36 407.296C3059.5 407.616 3176.97 422.704 3311.67 424.602C3324.01 425.021 3336.27 425.474 3348.54 425.948C3351.32 426.037 3354.11 426.114 3356.89 426.18C3377.06 426.71 3397.3 426.743 3417.54 426.467C3476.46 424.745 3534.86 422.814 3593.93 420.54C3645.7 418.532 3696.57 416.181 3750 415.739C3772.72 415.243 3795.67 414.801 3819.15 414.492C3842.78 414.183 3866.94 414.007 3891.92 414.051" stroke="white" stroke-width="2" stroke-miterlimit="10"/>
<path d="M-11.667 402.506C113.624 402.804 224.241 406.137 347.726 408.223C373.386 408.653 399.046 408.907 424.932 408.896C604.93 408.742 774.317 395.409 965.076 391.624C980.502 391.315 996.154 391.083 1011.88 390.829C1089.54 389.538 1126.79 396.414 1177.51 398.621C1191.28 399.018 1206.25 398.842 1221.53 398.555C1246.21 398.091 1270.89 397.418 1296.17 396.833C1339.37 395.818 1385.12 394.924 1430.72 396.193C1452.24 396.789 1473.09 397.396 1493.55 398.036C1514.25 398.665 1534.72 399.228 1554.96 399.912C1582.35 400.839 1610.27 401.678 1639.01 402.285C1824.35 406.159 2031.59 406.27 2219.19 408.146C2277.43 408.731 2336.28 409.426 2395.8 410.375C2587.76 413.443 2751.05 396.138 2925.26 396.656C3060.33 397.065 3178.17 411.92 3312.19 414.161C3324.46 414.613 3336.65 415.088 3348.84 415.573C3351.62 415.662 3354.41 415.75 3357.19 415.816C3377.36 416.368 3397.6 416.412 3417.77 416.103C3476.54 414.271 3534.78 412.229 3593.7 409.945C3645.47 407.925 3696.34 405.629 3749.92 405.32C3772.65 404.868 3795.6 404.448 3819.15 404.15C3842.78 403.852 3866.93 403.676 3891.92 403.72" stroke="white" stroke-width="2" stroke-miterlimit="10"/>
<path d="M-11.5186 392.198C113.923 392.452 224.841 395.431 348.702 397.451C374.513 397.871 400.324 398.113 426.36 398.102C605.831 397.948 775.971 385.002 967.331 381.337C982.908 381.039 998.635 380.819 1014.59 380.554C1092.4 379.285 1130.1 385.686 1180.66 387.573C1194.36 387.893 1209.26 387.662 1224.38 387.319C1248.92 386.768 1273.37 386.006 1298.51 385.355C1341.55 384.229 1387.3 383.28 1432.83 384.637C1454.27 385.278 1474.97 385.94 1495.36 386.624C1515.9 387.308 1536.22 387.926 1556.31 388.677C1583.4 389.692 1611.09 390.63 1639.76 391.304C1824.13 395.663 2032.42 395.707 2219.71 397.396C2278.03 397.915 2336.88 398.533 2396.48 399.416C2588.29 402.252 2752.26 385.366 2926.53 385.995C3061.61 386.481 3179.68 401.115 3313.17 403.709C3325.36 404.184 3337.55 404.68 3349.66 405.199C3352.45 405.298 3355.23 405.376 3357.94 405.453C3378.11 406.038 3398.35 406.071 3418.52 405.751C3477.14 403.808 3535.23 401.667 3594.08 399.372C3645.85 397.33 3696.79 395.111 3750.44 394.924C3773.17 394.504 3796.2 394.118 3819.75 393.842C3843.38 393.566 3867.61 393.39 3892.59 393.412" stroke="white" stroke-width="2" stroke-miterlimit="10"/>
<path d="M-11.4424 381.9C114.225 382.121 225.369 384.737 349.531 386.679C375.492 387.087 401.453 387.33 427.64 387.308C606.584 387.154 777.477 374.594 969.514 371.051C985.241 370.764 1001.12 370.543 1017.15 370.29C1095.11 369.02 1133.18 374.969 1183.6 376.536C1197.22 376.779 1211.97 376.492 1227.02 376.095C1251.32 375.455 1275.56 374.616 1300.54 373.899C1343.43 372.673 1389.11 371.647 1434.71 373.093C1456.08 373.766 1476.7 374.483 1496.86 375.234C1517.26 375.973 1537.42 376.647 1557.37 377.474C1584.23 378.578 1611.7 379.616 1640.14 380.366C1823.45 385.211 2032.87 385.2 2219.79 386.69C2278.11 387.154 2337.03 387.694 2396.63 388.5C2588.21 391.105 2752.93 374.649 2927.29 375.377C3062.36 375.94 3180.73 390.354 3313.62 393.29C3325.74 393.787 3337.85 394.305 3349.89 394.857C3352.68 394.957 3355.38 395.045 3358.17 395.133C3378.34 395.74 3398.5 395.773 3418.74 395.431C3477.29 393.367 3535.16 391.138 3593.85 388.82C3645.55 386.767 3696.57 384.604 3750.37 384.56C3773.1 384.185 3796.12 383.821 3819.68 383.567C3843.3 383.302 3867.53 383.136 3892.52 383.136" stroke="white" stroke-width="2" stroke-miterlimit="10"/>
<path d="M-11.2939 371.592C114.524 371.769 225.969 374.031 350.507 375.908C376.544 376.305 402.73 376.537 429.143 376.526C607.636 376.382 779.205 364.198 971.92 360.776C987.798 360.5 1003.75 360.291 1019.93 360.026C1098.04 358.757 1136.57 364.253 1186.83 365.5C1200.38 365.666 1215.05 365.323 1229.95 364.871C1254.03 364.143 1278.11 363.215 1302.94 362.432C1345.61 361.096 1391.36 360.015 1436.89 361.549C1458.11 362.266 1478.65 363.039 1498.74 363.834C1518.99 364.628 1539.08 365.357 1558.79 366.251C1585.43 367.443 1612.67 368.568 1640.89 369.396C1823.22 374.727 2033.69 374.65 2220.24 375.941C2278.63 376.349 2337.55 376.802 2397.15 377.541C2588.59 379.914 2753.99 363.878 2928.41 364.716C3063.49 365.368 3182.16 379.55 3314.45 382.839C3326.49 383.358 3338.53 383.909 3350.57 384.483C3353.35 384.594 3356.06 384.682 3358.84 384.77C3379.01 385.41 3399.18 385.432 3419.42 385.068C3477.81 382.894 3535.61 380.554 3594.07 378.236C3645.77 376.173 3696.79 374.065 3750.67 374.153C3773.39 373.811 3796.5 373.491 3820.05 373.237C3843.68 372.994 3867.91 372.828 3892.89 372.806" stroke="white" stroke-width="2" stroke-miterlimit="10"/>
<path d="M-11.2178 361.283C114.75 361.427 226.496 363.314 351.336 365.124C377.523 365.5 403.785 365.731 430.423 365.72C608.389 365.577 780.711 353.79 974.103 350.478C990.056 350.203 1006.23 350.015 1022.49 349.75C1100.75 348.481 1139.65 353.525 1189.84 354.441C1203.31 354.54 1217.84 354.132 1232.66 353.624C1256.59 352.807 1280.37 351.792 1305.13 350.953C1347.57 349.507 1393.32 348.359 1438.92 349.993C1460.07 350.754 1480.53 351.571 1500.48 352.432C1520.64 353.282 1540.51 354.076 1560.07 355.026C1586.49 356.317 1613.43 357.531 1641.57 358.425C1822.85 364.241 2034.45 364.098 2220.69 365.202C2279.09 365.544 2338.08 365.93 2397.68 366.592C2588.89 368.733 2755.04 353.116 2929.54 354.065C3064.54 354.794 3183.51 368.766 3315.2 372.386C3327.24 372.927 3339.2 373.501 3351.17 374.097C3353.88 374.207 3356.66 374.307 3359.45 374.395C3379.61 375.057 3399.78 375.079 3420.02 374.704C3478.27 372.42 3535.91 369.98 3594.3 367.641C3645.92 365.555 3697.02 363.513 3751.05 363.734C3773.85 363.425 3796.87 363.138 3820.5 362.906C3844.21 362.674 3868.36 362.52 3893.42 362.475" stroke="white" stroke-width="2" stroke-miterlimit="10"/>
<path d="M-11.0645 350.975C115.129 351.075 227.101 352.609 352.317 354.353C378.579 354.717 405.067 354.938 431.856 354.927C609.295 354.794 782.369 343.382 976.439 340.193C992.542 339.928 1008.8 339.74 1025.2 339.475C1103.61 338.206 1142.97 342.797 1193.01 343.393C1206.4 343.415 1220.77 342.952 1235.52 342.389C1259.23 341.484 1282.86 340.391 1307.39 339.486C1349.68 337.93 1395.43 336.716 1440.96 338.449C1462.03 339.254 1482.34 340.126 1502.13 341.031C1522.15 341.936 1541.87 342.786 1561.28 343.802C1587.47 345.181 1614.18 346.484 1642.1 347.466C1822.4 353.779 2035.05 353.558 2220.92 354.474C2279.31 354.761 2338.38 355.059 2397.98 355.655C2589.04 357.564 2755.87 342.378 2930.45 343.415C3065.45 344.221 3184.72 357.973 3315.8 361.946C3327.77 362.509 3339.66 363.116 3351.55 363.734C3354.26 363.844 3357.04 363.944 3359.75 364.043C3379.92 364.738 3400.08 364.76 3420.25 364.352C3478.42 361.946 3535.84 359.419 3594.08 357.068C3645.7 354.971 3696.87 352.995 3750.97 353.337C3773.77 353.072 3796.88 352.808 3820.43 352.598C3844.13 352.388 3868.36 352.223 3893.35 352.178" stroke="white" stroke-width="2" stroke-miterlimit="10"/>
<path d="M-10.917 340.678C115.427 340.745 227.7 341.915 353.217 343.592C379.63 343.945 406.268 344.155 433.283 344.144C610.195 344.012 784.022 332.986 978.768 329.929C995.022 329.675 1011.43 329.498 1027.98 329.233C1106.54 327.964 1146.27 332.103 1196.24 332.379C1209.63 332.324 1223.86 331.805 1238.38 331.187C1261.93 330.194 1285.34 329.013 1309.72 328.041C1351.78 326.375 1397.61 325.106 1443.06 326.927C1464.05 327.765 1484.22 328.693 1503.94 329.664C1523.8 330.635 1543.44 331.529 1562.63 332.611C1588.59 334.078 1615.01 335.48 1642.77 336.529C1822.09 343.327 2035.73 343.04 2221.29 343.769C2279.76 344 2338.83 344.221 2398.43 344.74C2589.26 346.418 2756.85 331.65 2931.5 332.798C3066.5 333.692 3186 347.212 3316.55 351.528C3328.44 352.112 3340.33 352.742 3352.15 353.393C3354.86 353.514 3357.64 353.613 3360.35 353.713C3380.52 354.43 3400.68 354.452 3420.85 354.033C3478.87 351.516 3536.13 348.879 3594.3 346.517C3645.92 344.409 3697.09 342.488 3751.27 342.963C3774.07 342.731 3797.17 342.499 3820.8 342.312C3844.51 342.113 3868.74 341.959 3893.72 341.892" stroke="white" stroke-width="2" stroke-miterlimit="10"/>
<path d="M-10.8398 330.37C115.655 330.392 228.229 331.209 354.046 332.809C380.534 333.151 407.399 333.35 434.564 333.339C610.949 333.217 785.529 322.578 980.877 319.631C997.282 319.388 1013.76 319.212 1030.47 318.947C1109.18 317.677 1149.36 321.375 1199.18 321.32C1212.5 321.198 1226.57 320.613 1241.02 319.94C1264.34 318.858 1287.52 317.589 1311.83 316.563C1353.74 314.786 1399.57 313.439 1445.02 315.371C1465.94 316.254 1486.03 317.236 1505.52 318.251C1525.23 319.278 1544.72 320.227 1563.69 321.386C1589.42 322.942 1615.61 324.432 1643.15 325.569C1821.42 332.853 2036.18 332.5 2221.45 333.041C2279.91 333.206 2338.99 333.35 2398.73 333.802C2589.42 335.248 2757.68 320.9 2932.41 322.158C3067.4 323.13 3187.2 336.429 3317.16 341.097C3328.97 341.716 3340.79 342.356 3352.53 343.029C3355.23 343.15 3358.02 343.261 3360.73 343.36C3380.89 344.111 3401.06 344.122 3421.23 343.68C3479.1 341.042 3536.21 338.316 3594.23 335.943C3645.77 333.813 3697.02 331.959 3751.35 332.566C3774.15 332.378 3797.33 332.169 3820.96 331.992C3844.66 331.816 3868.89 331.661 3893.95 331.573" stroke="white" stroke-width="2" stroke-miterlimit="10"/>
<path d="M-10.6924 320.062C115.953 320.051 228.828 320.492 355.022 322.037C381.66 322.357 408.6 322.567 435.99 322.556C611.849 322.435 787.181 312.192 983.207 309.356C999.687 309.113 1016.39 308.959 1033.17 308.694C1112.03 307.425 1152.59 310.669 1202.33 310.294C1215.58 310.095 1229.57 309.455 1243.87 308.727C1266.97 307.557 1290 306.211 1314.16 305.118C1355.84 303.231 1401.67 301.829 1447.12 303.849C1467.97 304.765 1487.91 305.802 1507.32 306.884C1526.89 307.965 1546.23 308.97 1565.04 310.195C1590.55 311.85 1616.51 313.429 1643.9 314.632C1821.19 322.401 2037.01 322.832 2221.89 322.335C2280.44 322.181 2339.51 322.512 2399.26 322.887C2589.72 324.101 2758.8 310.184 2933.53 311.541C3068.45 312.59 3188.63 325.679 3317.98 330.679C3329.8 331.319 3341.46 331.992 3353.2 332.688C3355.91 332.82 3358.62 332.931 3361.33 333.03C3381.49 333.802 3401.66 333.813 3421.83 333.35C3479.62 330.602 3536.51 327.765 3594.45 325.381C3646 323.24 3697.24 321.452 3751.72 322.181C3774.6 322.026 3797.7 321.85 3821.33 321.695C3845.03 321.53 3869.34 321.386 3894.32 321.276" stroke="white" stroke-width="2" stroke-miterlimit="10"/>
<path d="M-10.5342 309.753C116.337 309.698 229.437 309.786 355.932 311.265C382.721 311.574 409.811 311.773 437.428 311.762C612.76 311.641 788.844 301.785 985.547 299.07C1002.18 298.838 1018.96 298.694 1035.89 298.419C1114.9 297.149 1155.91 299.942 1205.5 299.235C1218.67 298.959 1232.52 298.253 1246.74 297.48C1269.69 296.222 1292.42 294.787 1316.42 293.629C1357.88 291.631 1403.79 290.163 1449.24 292.282C1470.01 293.242 1489.87 294.324 1509.14 295.472C1528.55 296.609 1547.81 297.679 1566.4 298.959C1591.68 300.703 1617.34 302.381 1644.59 303.65C1820.82 311.905 2037.84 312.292 2222.28 311.585C2280.82 311.365 2339.97 311.618 2399.72 311.928C2589.95 312.91 2759.79 299.412 2934.59 300.88C3069.52 302.017 3189.92 314.874 3318.67 320.227C3330.41 320.889 3342.07 321.585 3353.66 322.313C3356.37 322.446 3359.08 322.567 3361.79 322.666C3381.95 323.472 3402.12 323.483 3422.29 322.997C3479.93 320.139 3536.67 317.203 3594.46 314.808C3645.93 312.656 3697.25 310.923 3751.81 311.784C3774.68 311.663 3797.78 311.53 3821.49 311.387C3845.19 311.243 3869.5 311.1 3894.48 310.978" stroke="white" stroke-width="2" stroke-miterlimit="10"/>
<path d="M-10.4629 299.445C116.559 299.357 229.96 299.081 356.831 300.483C383.696 300.781 411.011 300.968 438.778 300.957C613.584 300.847 790.421 291.377 987.801 288.773C1004.58 288.552 1021.51 288.408 1038.59 288.132C1117.76 286.863 1159.14 289.203 1208.66 288.177C1221.75 287.823 1235.52 287.062 1249.59 286.234C1272.32 284.888 1294.9 283.365 1318.75 282.151C1360.06 280.042 1405.89 278.519 1451.34 280.727C1472.03 281.731 1491.75 282.868 1510.86 284.06C1530.13 285.252 1549.24 286.378 1567.68 287.724C1592.73 289.556 1618.17 291.322 1645.18 292.68C1820.44 301.432 2038.59 301.763 2222.65 300.847C2281.19 300.56 2340.42 300.747 2400.16 300.979C2590.25 301.73 2760.76 288.651 2935.64 290.229C3070.56 291.443 3191.27 304.081 3319.42 309.775C3331.08 310.46 3342.67 311.177 3354.26 311.928C3356.97 312.06 3359.67 312.182 3362.38 312.292C3382.55 313.12 3402.64 313.131 3422.81 312.623C3480.38 309.643 3536.89 306.619 3594.53 304.202C3646 302.028 3697.4 300.361 3752.03 301.354C3774.9 301.277 3798.08 301.167 3821.78 301.034C3845.56 300.902 3869.79 300.758 3894.85 300.626" stroke="white" stroke-width="2" stroke-miterlimit="10"/>
<path d="M-10.3145 289.148C116.858 289.015 230.56 288.375 357.732 289.722C384.747 290.009 412.213 290.185 440.206 290.174C614.485 290.064 792.074 280.992 990.132 278.497C1006.99 278.288 1024.07 278.155 1041.3 277.879C1120.54 276.61 1162.45 278.497 1211.82 277.151C1224.84 276.731 1238.46 275.904 1252.38 275.021C1274.88 273.586 1297.23 271.986 1321.01 270.705C1362.09 268.487 1407.99 266.898 1453.44 269.193C1474.06 270.242 1493.7 271.423 1512.67 272.681C1531.78 273.928 1550.82 275.109 1569.03 276.533C1593.86 278.464 1618.99 280.318 1645.86 281.742C1820.06 290.98 2039.34 291.267 2223.02 290.141C2281.57 289.777 2340.87 289.898 2400.61 290.064C2590.47 290.583 2761.74 277.923 2936.69 279.612C3071.54 280.903 3192.54 293.32 3320.17 299.368C3331.76 300.074 3343.34 300.825 3354.78 301.597C3357.49 301.741 3360.2 301.862 3362.91 301.983C3383.08 302.844 3403.17 302.844 3423.33 302.326C3480.75 299.235 3537.19 296.101 3594.68 293.684C3646.15 291.499 3697.54 289.887 3752.33 291.013C3775.2 290.969 3798.38 290.892 3822.08 290.781C3845.86 290.671 3870.09 290.527 3895.15 290.373" stroke="white" stroke-width="2" stroke-miterlimit="10"/>
<path d="M-10.1611 278.839C117.162 278.674 231.24 277.669 358.713 278.938C385.803 279.214 413.42 279.38 441.639 279.38C615.391 279.281 793.808 270.584 992.467 268.211C1009.47 268.012 1026.71 267.88 1044.01 267.604C1123.4 266.334 1165.69 267.769 1214.98 266.103C1227.92 265.606 1241.47 264.723 1255.24 263.785C1277.59 262.262 1299.71 260.573 1323.27 259.227C1364.13 256.898 1410.03 255.254 1455.48 257.637C1476.02 258.73 1495.51 259.966 1514.32 261.269C1533.29 262.571 1552.18 263.818 1570.24 265.297C1594.84 267.317 1619.75 269.259 1646.46 270.76C1819.69 280.484 2040.1 280.715 2223.33 279.391C2281.95 278.96 2341.24 279.016 2401.07 279.104C2590.77 279.391 2762.72 267.162 2937.75 268.95C3072.6 270.33 3193.9 282.525 3320.92 288.905C3332.44 289.633 3343.95 290.406 3355.39 291.211C3358.1 291.355 3360.8 291.487 3363.44 291.609C3383.61 292.503 3403.7 292.492 3423.86 291.951C3481.13 288.75 3537.42 285.516 3594.76 283.077C3646.15 280.881 3697.62 279.336 3752.56 280.583C3775.51 280.583 3798.68 280.528 3822.39 280.439C3846.17 280.34 3870.47 280.208 3895.45 280.031" stroke="white" stroke-width="2" stroke-miterlimit="10"/>
<path d="M-10.0898 268.531C117.459 268.321 231.763 266.963 359.537 268.166C386.778 268.42 414.545 268.586 442.914 268.586C616.214 268.486 795.309 260.187 994.57 257.924C1011.73 257.726 1029.03 257.615 1046.49 257.339C1126.03 256.07 1168.7 257.052 1217.91 255.055C1230.78 254.481 1244.17 253.543 1257.87 252.549C1279.99 250.938 1301.89 249.161 1325.37 247.759C1366 245.32 1411.98 243.61 1457.36 246.093C1477.82 247.23 1497.16 248.51 1515.9 249.878C1534.79 251.236 1553.45 252.538 1571.36 254.083C1595.74 256.203 1620.35 258.233 1646.91 259.812C1819.08 270.032 2040.39 269.259 2223.55 268.663C2282.24 268.475 2341.54 268.199 2401.37 268.166C2590.84 268.056 2763.54 256.412 2938.72 258.3C3073.57 259.756 3195.1 271.731 3321.59 278.464C3333.11 279.225 3344.47 280.02 3355.83 280.848C3358.54 281.002 3361.18 281.135 3363.89 281.256C3384.05 282.172 3404.14 282.161 3424.31 281.598C3481.5 278.276 3537.56 274.954 3594.83 272.504C3646.22 270.285 3697.69 268.806 3752.7 270.186C3775.65 270.219 3798.83 270.197 3822.61 270.12C3846.39 270.043 3870.69 269.91 3895.75 269.723" stroke="white" stroke-width="2" stroke-miterlimit="10"/>
<path d="M-9.93164 258.223C117.767 257.98 232.373 256.247 360.448 257.395C387.839 257.638 415.756 257.803 444.351 257.792C617.125 257.704 796.972 249.791 996.911 247.638C1014.22 247.451 1031.68 247.351 1049.28 247.064C1128.97 245.795 1172.09 246.336 1221.15 244.007C1233.95 243.356 1247.27 242.363 1260.81 241.314C1282.71 239.615 1304.46 237.76 1327.78 236.293C1368.27 233.743 1414.25 231.955 1459.62 234.549C1480.01 235.719 1499.28 237.065 1517.86 238.478C1536.6 239.891 1555.19 241.248 1572.87 242.859C1597.1 245.067 1621.41 247.197 1647.75 248.841C1818.94 259.547 2041.3 258.697 2224.08 257.925C2282.78 257.682 2342.08 257.273 2401.97 257.218C2591.23 257.053 2764.68 245.652 2939.94 247.649C3074.78 249.184 3196.61 260.938 3322.43 268.012C3333.87 268.796 3345.23 269.613 3356.52 270.462C3359.23 270.617 3361.86 270.76 3364.57 270.882C3384.74 271.831 3404.83 271.82 3425 271.235C3482.03 267.803 3537.95 264.37 3595.06 261.909C3646.38 259.679 3697.93 258.256 3753.08 259.768C3776.04 259.834 3799.29 259.845 3822.99 259.79C3846.77 259.724 3871.08 259.602 3896.13 259.393" stroke="white" stroke-width="2" stroke-miterlimit="10"/>
<path d="M-9.78418 247.925C118.065 247.638 232.972 245.552 361.423 246.623C388.889 246.855 417.033 247.009 445.778 246.998C618.025 246.91 798.624 239.394 999.24 237.352C1016.62 237.175 1034.23 237.076 1051.99 236.8C1131.83 235.531 1175.32 235.619 1224.24 232.97C1236.95 232.253 1250.12 231.193 1263.59 230.09C1285.34 228.302 1306.79 226.359 1330.04 224.825C1370.3 222.165 1416.35 220.311 1461.65 223.004C1481.97 224.207 1501.08 225.609 1519.52 227.088C1538.1 228.556 1556.54 229.979 1574.07 231.657C1598.08 233.953 1622.16 236.171 1648.35 237.893C1818.48 249.095 2041.98 248.168 2224.38 247.208C2283.15 246.899 2342.45 246.424 2402.35 246.292C2591.38 245.894 2765.58 234.924 2940.91 237.021C3075.68 238.643 3197.89 250.166 3323.1 257.593C3334.47 258.399 3345.75 259.238 3357.04 260.121C3359.68 260.286 3362.38 260.419 3365.02 260.551C3385.19 261.522 3405.28 261.511 3425.37 260.904C3482.26 257.362 3538.02 253.83 3594.98 251.358C3646.3 249.117 3697.92 247.749 3753.16 249.393C3776.11 249.503 3799.36 249.548 3823.14 249.503C3846.92 249.459 3871.22 249.338 3896.28 249.106" stroke="white" stroke-width="2" stroke-miterlimit="10"/>
<path d="M-9.71191 237.617C118.288 237.297 233.495 234.847 362.248 235.851C389.865 236.072 418.083 236.216 447.054 236.205C618.774 236.116 800.126 228.998 1001.42 227.066C1018.95 226.901 1036.71 226.812 1054.55 226.525C1134.54 225.256 1178.48 224.892 1227.24 221.923C1239.89 221.128 1252.98 220.014 1266.3 218.855C1287.82 216.978 1309.04 214.959 1332.14 213.358C1372.18 210.588 1418.3 208.668 1463.6 211.46C1483.85 212.707 1502.88 214.164 1521.17 215.687C1539.61 217.21 1557.97 218.689 1575.2 220.433C1598.98 222.828 1622.76 225.135 1648.79 226.934C1817.88 238.622 2042.5 237.628 2224.61 236.48C2283.38 236.116 2342.75 235.553 2402.65 235.355C2591.52 234.726 2766.4 224.174 2941.81 226.382C3076.58 228.081 3199.01 239.383 3323.7 247.164C3334.99 247.992 3346.28 248.864 3357.42 249.769C3360.05 249.934 3362.76 250.078 3365.39 250.21C3385.56 251.214 3405.65 251.192 3425.74 250.574C3482.56 246.91 3538.09 243.279 3594.98 240.796C3646.3 238.533 3697.92 237.242 3753.23 239.008C3776.18 239.151 3799.51 239.229 3823.21 239.195C3847.07 239.173 3871.37 239.041 3896.43 238.798" stroke="white" stroke-width="2" stroke-miterlimit="10"/>
<path d="M-9.55957 227.309C118.666 226.945 234.099 224.13 363.228 225.068C390.92 225.267 419.364 225.41 448.561 225.41C619.755 225.333 801.859 218.601 1003.83 216.78C1021.51 216.625 1039.35 216.548 1057.33 216.261C1137.47 214.992 1181.8 214.175 1230.48 210.886C1243.05 210.014 1255.99 208.844 1269.16 207.63C1290.53 205.666 1311.53 203.558 1334.48 201.891C1374.28 199.01 1420.49 197.035 1465.71 199.916C1485.95 201.207 1504.77 202.708 1522.9 204.297C1541.19 205.886 1559.4 207.421 1576.48 209.219C1600.03 211.703 1623.59 214.098 1649.4 215.974C1817.51 228.148 2043.18 227.077 2224.91 225.753C2283.75 225.322 2343.13 224.693 2403.1 224.417C2591.75 223.567 2767.46 213.424 2942.87 215.742C3077.64 217.519 3200.37 228.611 3324.46 236.723C3335.67 237.573 3346.88 238.467 3358.02 239.394C3360.65 239.56 3363.36 239.714 3366 239.846C3386.16 240.884 3406.25 240.851 3426.35 240.211C3483.01 236.436 3538.39 232.706 3595.13 230.211C3646.38 227.938 3698.07 226.702 3753.53 228.6C3776.56 228.788 3799.81 228.887 3823.59 228.876C3847.44 228.876 3871.75 228.744 3896.81 228.479" stroke="white" stroke-width="2" stroke-miterlimit="10"/>
<path d="M-9.41113 217C118.965 216.603 234.699 213.424 364.129 214.296C391.971 214.484 420.566 214.616 449.914 214.616C620.58 214.539 803.437 208.204 1006.08 206.493C1023.92 206.339 1041.9 206.272 1059.96 205.985C1140.26 204.716 1185.03 203.447 1233.57 199.827C1246.06 198.889 1258.92 197.653 1271.94 196.383C1293.09 194.331 1313.86 192.134 1336.73 190.413C1376.31 187.422 1422.52 185.38 1467.74 188.36C1487.91 189.684 1506.57 191.251 1524.63 192.885C1542.77 194.529 1560.9 196.119 1577.76 197.984C1601.09 200.566 1624.34 203.05 1650 205.003C1817.05 217.673 2043.86 216.525 2225.21 215.013C2284.05 214.528 2343.5 213.799 2403.47 213.468C2591.9 212.343 2768.36 202.663 2943.84 205.091C3078.62 206.946 3201.57 217.817 3325.13 226.282C3336.35 227.154 3347.41 228.07 3358.47 229.03C3361.1 229.207 3363.81 229.361 3366.45 229.494C3386.61 230.553 3406.63 230.52 3426.8 229.869C3483.31 225.984 3538.54 222.154 3595.2 219.638C3646.45 217.353 3698.15 216.172 3753.76 218.203C3776.78 218.424 3800.11 218.556 3823.89 218.567C3847.74 218.567 3872.05 218.457 3897.11 218.181" stroke="white" stroke-width="2" stroke-miterlimit="10"/>
<path d="M-9.33008 206.703C119.197 206.261 235.232 202.729 365.038 203.535C393.031 203.712 421.776 203.833 451.274 203.833C621.414 203.767 805.023 197.818 1008.27 196.218C1026.18 196.074 1044.32 196.019 1062.6 195.732C1143.05 194.463 1188.2 192.741 1236.66 188.801C1249.07 187.786 1261.79 186.494 1274.73 185.17C1295.65 183.029 1316.2 180.755 1338.92 178.967C1378.28 175.866 1424.55 173.758 1469.78 176.837C1489.87 178.206 1508.46 179.817 1526.37 181.517C1544.35 183.216 1562.34 184.872 1579.04 186.803C1602.14 189.485 1625.17 192.057 1650.68 194.076C1816.68 207.232 2044.61 206.007 2225.59 204.319C2284.51 203.767 2343.96 202.972 2403.93 202.575C2592.13 201.217 2769.34 191.968 2944.9 194.496C3079.6 196.438 3202.93 207.078 3325.82 215.885C3336.95 216.779 3348.02 217.728 3359 218.711C3361.64 218.887 3364.27 219.042 3366.9 219.185C3387.07 220.278 3407.09 220.245 3427.25 219.56C3483.69 215.554 3538.77 211.625 3595.21 209.109C3646.38 206.802 3698.15 205.698 3753.91 207.85C3776.94 208.104 3800.27 208.27 3824.05 208.292C3847.9 208.314 3872.28 208.204 3897.34 207.906" stroke="white" stroke-width="2" stroke-miterlimit="10"/>
<path d="M-9.18164 196.395C119.496 195.92 235.832 192.013 365.939 192.752C394.007 192.907 422.903 193.039 452.702 193.028C622.315 192.962 806.677 187.411 1010.6 185.921C1028.66 185.788 1046.95 185.733 1065.31 185.446C1145.9 184.177 1191.5 182.003 1239.81 177.742C1252.16 176.65 1264.8 175.303 1277.59 173.924C1298.36 171.694 1318.68 169.332 1341.25 167.478C1380.38 164.278 1426.74 162.092 1471.88 165.271C1491.9 166.684 1510.34 168.35 1528.1 170.105C1545.93 171.86 1563.84 173.571 1580.32 175.568C1603.27 178.338 1625.92 180.998 1651.28 183.095C1816.3 196.748 2045.29 195.445 2225.96 193.569C2284.88 192.962 2344.33 192.09 2404.38 191.616C2592.43 190.037 2770.32 181.197 2945.95 183.835C3080.65 185.854 3204.29 196.273 3326.57 205.434C3337.63 206.361 3348.61 207.321 3359.53 208.325C3362.16 208.513 3364.79 208.667 3367.43 208.822C3387.59 209.937 3407.61 209.904 3427.7 209.197C3483.99 205.08 3538.92 201.052 3595.21 198.514C3646.38 196.196 3698.23 195.147 3753.99 197.432C3777.01 197.73 3800.34 197.918 3824.19 197.962C3848.05 198.006 3872.43 197.896 3897.49 197.575" stroke="white" stroke-width="2" stroke-miterlimit="10"/>
<path d="M-9.0332 186.086C119.87 185.568 236.432 181.308 366.915 181.981C395.133 182.124 424.18 182.246 454.129 182.235C623.216 182.179 808.33 177.014 1012.93 175.635C1031.14 175.513 1049.51 175.469 1068.02 175.182C1148.76 173.913 1194.74 171.297 1242.97 166.706C1255.24 165.536 1267.73 164.134 1280.45 162.7C1300.99 160.382 1321.08 157.932 1343.58 156.022C1382.49 152.711 1428.92 150.46 1474.07 153.727C1494.01 155.172 1512.37 156.894 1529.98 158.704C1547.66 160.514 1565.42 162.291 1581.75 164.344C1604.47 167.214 1626.9 169.962 1652.03 172.136C1816 186.274 2046.11 184.894 2226.41 182.842C2285.41 182.168 2344.86 181.23 2404.91 180.678C2592.73 178.879 2771.37 170.447 2947.08 173.196C3081.78 175.292 3205.64 185.501 3327.39 194.993C3338.38 195.942 3349.37 196.936 3360.2 197.962C3362.84 198.15 3365.47 198.315 3368.1 198.47C3388.19 199.617 3408.29 199.573 3428.38 198.856C3484.51 194.629 3539.3 190.501 3595.51 187.952C3646.68 185.623 3698.52 184.63 3754.44 187.047C3777.54 187.378 3800.86 187.598 3824.72 187.665C3848.57 187.72 3872.95 187.61 3898.01 187.278" stroke="white" stroke-width="2" stroke-miterlimit="10"/>
<path d="M-8.95703 175.778C120.096 175.226 236.959 170.591 367.744 171.209C396.037 171.341 425.31 171.452 455.41 171.452C624.044 171.397 809.836 166.629 1015.12 165.359C1033.48 165.249 1051.99 165.216 1070.58 164.918C1151.47 163.649 1197.9 160.581 1245.98 155.669C1258.17 154.433 1270.59 152.965 1283.16 151.475C1303.48 149.069 1323.34 146.542 1345.77 144.566C1384.44 141.145 1430.95 138.827 1476.02 142.193C1495.89 143.683 1514.1 145.46 1531.56 147.325C1549.17 149.191 1566.77 151.023 1582.88 153.142C1605.38 156.111 1627.5 158.947 1652.56 161.188C1815.47 175.822 2046.72 174.365 2226.64 172.125C2285.64 171.386 2345.16 170.37 2405.21 169.752C2592.81 167.732 2772.28 159.665 2947.98 162.556C3082.68 164.697 3206.84 174.719 3328 184.563C3338.98 185.535 3349.82 186.55 3360.58 187.61C3363.21 187.797 3365.85 187.974 3368.48 188.128C3388.57 189.309 3408.66 189.254 3428.76 188.515C3484.82 184.166 3539.37 179.939 3595.43 177.378C3646.53 175.028 3698.45 174.101 3754.51 176.65C3777.61 177.014 3800.94 177.279 3824.8 177.345C3848.65 177.423 3873.03 177.312 3898.16 176.97" stroke="white" stroke-width="2" stroke-miterlimit="10"/>
<path d="M-8.80859 165.481C120.395 164.885 237.635 159.896 368.644 160.437C397.089 160.559 426.512 160.658 456.837 160.658C624.945 160.603 811.49 156.232 1017.45 155.073C1035.88 154.974 1054.55 154.941 1073.36 154.654C1154.4 153.385 1201.21 149.864 1249.22 144.622C1261.33 143.308 1273.6 141.785 1286.01 140.24C1306.18 137.746 1325.82 135.13 1348.02 133.088C1386.47 129.556 1433.05 127.172 1478.05 130.638C1497.84 132.161 1515.9 133.993 1533.29 135.914C1550.74 137.834 1568.2 139.732 1584.15 141.918C1606.43 144.975 1628.33 147.899 1653.16 150.217C1815.02 165.338 2047.47 163.803 2227.01 161.375C2286.08 160.581 2345.61 159.488 2405.73 158.793C2593.1 156.552 2773.33 148.904 2949.11 151.895C3083.81 154.124 3208.2 163.914 3328.82 174.101C3339.73 175.094 3350.49 176.131 3361.25 177.213C3363.89 177.412 3366.52 177.588 3369.08 177.743C3389.17 178.946 3409.26 178.891 3429.35 178.14C3485.27 173.681 3539.67 169.355 3595.66 166.783C3646.75 164.422 3698.67 163.561 3754.81 166.232C3777.91 166.64 3801.31 166.927 3825.17 167.015C3849.1 167.103 3873.48 167.015 3898.54 166.64" stroke="white" stroke-width="2" stroke-miterlimit="10"/>
<path d="M-8.65527 155.173C120.774 154.543 238.239 149.18 369.626 149.665C398.22 149.765 427.718 149.864 458.27 149.864C625.851 149.82 813.148 145.847 1019.78 144.787C1038.37 144.688 1057.18 144.677 1076.07 144.379C1157.27 143.109 1204.52 139.136 1252.38 133.574C1264.42 132.183 1276.61 130.605 1288.88 129.004C1308.82 126.422 1328.23 123.729 1350.36 121.621C1388.58 117.979 1435.24 115.529 1480.24 119.093C1499.95 120.661 1517.94 122.548 1535.17 124.523C1552.48 126.499 1569.86 128.453 1585.51 130.704C1607.56 133.861 1629.16 136.874 1653.84 139.269C1814.72 154.886 2048.22 153.263 2227.39 150.659C2286.46 149.798 2346.06 148.639 2406.19 147.866C2593.41 145.405 2774.31 138.165 2950.17 141.266C3084.79 143.573 3209.55 153.142 3329.5 163.682C3340.34 164.697 3351.1 165.768 3361.78 166.872C3364.42 167.07 3366.98 167.247 3369.61 167.412C3389.7 168.648 3409.79 168.593 3429.88 167.81C3485.72 163.24 3539.9 158.815 3595.74 156.221C3646.75 153.848 3698.75 153.042 3755.04 155.846C3778.14 156.287 3801.54 156.607 3825.47 156.718C3849.4 156.828 3873.78 156.718 3898.84 156.342" stroke="white" stroke-width="2" stroke-miterlimit="10"/>
<path d="M-8.5791 144.864C121.001 144.191 238.767 138.474 370.454 138.882C399.124 138.97 428.848 139.058 459.55 139.058C626.604 139.014 814.729 135.438 1021.89 134.489C1040.63 134.401 1059.52 134.401 1078.55 134.103C1159.9 132.823 1207.53 128.408 1255.32 122.525C1267.28 121.058 1279.32 119.424 1291.51 117.78C1311.23 115.109 1330.42 112.327 1352.46 110.164C1390.47 106.412 1437.2 103.884 1482.12 107.56C1501.76 109.16 1519.59 111.102 1536.68 113.133C1553.83 115.164 1571.06 117.184 1586.57 119.49C1608.46 122.746 1629.76 125.836 1654.22 128.309C1814.05 144.411 2048.68 142.712 2227.47 139.93C2286.62 139.014 2346.21 137.778 2406.34 136.928C2593.33 134.246 2774.99 127.426 2950.92 130.626C3085.54 133.021 3210.53 142.358 3329.95 153.241C3340.71 154.278 3351.4 155.371 3362.01 156.508C3364.64 156.717 3367.2 156.894 3369.84 157.059C3389.93 158.329 3410.02 158.262 3430.04 157.457C3485.72 152.766 3539.75 148.241 3595.43 145.647C3646.45 143.252 3698.53 142.513 3754.89 145.46C3777.99 145.945 3801.47 146.288 3825.32 146.409C3849.25 146.53 3873.63 146.442 3898.77 146.034" stroke="white" stroke-width="2" stroke-miterlimit="10"/>
<path d="M-8.43164 134.556C121.299 133.849 239.366 127.757 371.429 128.11C400.25 128.187 430.124 128.276 461.052 128.265C627.58 128.231 816.457 125.042 1024.3 124.203C1043.18 124.126 1062.22 124.126 1081.34 123.828C1162.83 122.548 1210.92 117.68 1258.55 111.478C1270.44 109.944 1282.4 108.244 1294.44 106.544C1314.01 103.785 1332.97 100.927 1354.79 98.6861C1392.57 94.8343 1439.37 92.2296 1484.3 96.0041C1503.86 97.6486 1521.62 99.6352 1538.55 101.732C1555.56 103.818 1572.72 105.904 1587.99 108.266C1609.66 111.61 1630.66 114.811 1655.04 117.338C1813.59 133.982 2049.58 132.161 2228.07 129.192C2287.21 128.209 2346.81 126.907 2407.01 125.98C2593.78 123.077 2776.19 116.665 2952.2 119.976C3086.82 122.448 3212.11 131.576 3330.93 142.8C3341.61 143.871 3352.3 144.974 3362.83 146.144C3365.39 146.354 3368.03 146.541 3370.59 146.707C3390.68 147.998 3410.69 147.932 3430.79 147.115C3486.32 142.314 3540.2 137.69 3595.81 135.074C3646.83 132.668 3698.9 131.995 3755.34 135.063C3778.51 135.582 3801.92 135.957 3825.85 136.101C3849.78 136.244 3874.23 136.145 3899.29 135.725" stroke="white" stroke-width="2" stroke-miterlimit="10"/>
<path d="M-8.28223 124.258C121.599 123.508 239.967 117.062 372.331 117.349C401.227 117.415 431.327 117.493 462.405 117.493C628.406 117.46 818.036 114.678 1026.55 113.939C1045.52 113.873 1064.7 113.884 1084.04 113.575C1165.69 112.294 1214.15 106.986 1261.63 100.441C1273.45 98.8296 1285.26 97.0637 1297.23 95.3199C1316.57 92.4724 1335.3 89.5256 1357.05 87.23C1394.6 83.2678 1441.48 80.5969 1486.33 84.4708C1505.89 86.1594 1523.43 88.2012 1540.21 90.3423C1557.06 92.4835 1574.07 94.6246 1589.2 97.0637C1610.64 100.507 1631.41 103.785 1655.57 106.401C1813.06 123.53 2050.18 121.632 2228.29 118.486C2287.51 117.438 2347.11 116.058 2407.31 115.065C2593.86 111.941 2777.01 105.948 2953.1 109.359C3087.72 111.919 3213.31 120.815 3331.53 132.381C3342.22 133.474 3352.75 134.611 3363.21 135.792C3365.77 136.012 3368.4 136.2 3370.96 136.366C3391.05 137.69 3411.07 137.613 3431.16 136.774C3486.62 131.852 3540.35 127.128 3595.73 124.512C3646.68 122.095 3698.82 121.477 3755.41 124.678C3778.59 125.23 3802.07 125.638 3826 125.803C3849.93 125.958 3874.38 125.87 3899.44 125.439" stroke="white" stroke-width="2" stroke-miterlimit="10"/>
<path d="M-8.20605 113.95C121.901 113.167 240.495 106.346 373.235 106.567C402.282 106.611 432.457 106.688 463.761 106.688C629.235 106.655 819.617 104.271 1028.81 103.642C1047.92 103.587 1067.26 103.598 1086.68 103.3C1168.48 102.02 1217.39 96.2584 1264.72 89.3935C1276.46 87.7049 1288.12 85.8838 1300.01 84.0849C1319.2 81.1491 1337.64 78.125 1359.31 75.7631C1396.63 71.6906 1443.59 68.9535 1488.44 72.9267C1507.93 74.6484 1525.38 76.7454 1542.02 78.9528C1558.72 81.1491 1575.58 83.3564 1590.55 85.8507C1611.77 89.3935 1632.24 92.7597 1656.24 95.4417C1812.76 113.056 2050.93 111.081 2228.67 107.759C2287.89 106.655 2347.56 105.198 2407.84 104.128C2594.23 100.783 2778.07 95.2099 2954.23 98.7196C3088.78 101.368 3214.67 110.032 3332.36 121.952C3342.97 123.067 3353.43 124.226 3363.89 125.44C3366.45 125.66 3369.08 125.859 3371.64 126.025C3391.73 127.382 3411.75 127.294 3431.84 126.444C3487.15 121.411 3540.73 116.588 3596.03 113.95C3646.98 111.511 3699.13 110.959 3755.86 114.292C3779.04 114.888 3802.52 115.33 3826.45 115.506C3850.38 115.683 3874.83 115.595 3899.97 115.142" stroke="white" stroke-width="2" stroke-miterlimit="10"/>
<path d="M-8.05371 103.642C122.204 102.814 241.174 95.2652 374.14 95.795C403.262 95.9054 433.663 95.8943 465.192 95.8943C630.14 95.8723 821.274 93.9408 1031.15 93.3559C1050.41 93.3117 1069.82 93.3338 1089.39 93.0248C1171.34 91.7445 1220.63 85.5308 1267.88 78.3459C1279.55 76.5911 1291.13 74.7038 1302.8 72.8496C1321.76 69.8255 1339.97 66.7132 1361.57 64.2851C1398.67 60.1022 1445.7 57.2988 1490.47 61.3714C1509.89 63.1373 1527.19 65.2894 1543.75 67.5409C1560.3 69.8035 1577.08 72.066 1591.83 74.6155C1612.83 78.2576 1633.07 81.7011 1656.85 84.4603C1812.31 102.561 2051.61 100.508 2229.05 97.0091C2288.27 95.8392 2348.02 94.3161 2408.29 93.1683C2594.46 89.6034 2779.05 84.4382 2955.28 88.0582C3089.83 90.7843 3216.02 99.2274 3333.04 111.489C3343.57 112.626 3354.03 113.818 3364.34 115.054C3366.9 115.275 3369.46 115.474 3372.09 115.661C3392.18 117.041 3412.2 116.963 3432.29 116.081C3487.45 110.937 3540.88 106.015 3596.04 103.366C3646.9 100.916 3699.13 100.419 3756.02 103.885C3779.19 104.514 3802.75 104.989 3826.68 105.176C3850.68 105.364 3875.06 105.287 3900.2 104.812" stroke="white" stroke-width="2" stroke-miterlimit="10"/>
<path d="M-7.90527 93.3338C122.503 92.4729 241.774 84.5595 375.041 85.0121C404.313 85.1114 434.865 85.0893 466.545 85.0893C630.966 85.0672 822.853 83.5221 1033.4 83.0585C1052.82 83.0254 1072.38 83.0585 1092.02 82.7495C1174.12 81.4693 1223.86 74.8031 1270.97 67.2981C1282.55 65.466 1293.99 63.5235 1305.58 61.6141C1324.32 58.5018 1342.38 55.3011 1363.75 52.8178C1400.62 48.5356 1447.73 45.655 1492.43 49.8158C1511.76 51.6148 1528.92 53.8222 1545.33 56.1399C1561.81 58.4576 1578.36 60.7753 1592.96 63.391C1613.73 67.1325 1633.67 70.6643 1657.37 73.5007C1811.86 92.0866 2052.21 89.9565 2229.27 86.2813C2288.57 85.0452 2348.32 83.4559 2408.59 82.2308C2594.53 78.4452 2779.95 73.6994 2956.18 77.4077C3090.73 80.2221 3217.15 88.4445 3333.64 101.048C3344.1 102.207 3354.48 103.421 3364.79 104.68C3367.35 104.911 3369.91 105.11 3372.47 105.298C3392.48 106.71 3412.57 106.622 3432.67 105.717C3487.75 100.452 3540.95 95.4307 3595.96 92.7709C3646.83 90.3097 3699.13 89.8793 3756.01 93.4662C3779.27 94.1394 3802.74 94.6361 3826.75 94.8458C3850.75 95.0555 3875.21 94.9782 3900.27 94.4816" stroke="white" stroke-width="2" stroke-miterlimit="10"/>
<path d="M-7.8291 83.0363C122.729 82.1313 242.301 73.8758 375.945 74.2511C405.368 74.3394 436.07 74.3063 467.9 74.3063C631.794 74.2952 824.434 73.1364 1035.58 72.7832C1055.07 72.7611 1074.79 72.7942 1094.58 72.4852C1176.83 71.2049 1226.94 64.0862 1273.98 56.2612C1285.49 54.3518 1296.85 52.3542 1308.29 50.3896C1326.88 47.189 1344.64 43.911 1365.93 41.3505C1402.58 36.9579 1449.83 34.0111 1494.46 38.2713C1513.72 40.1144 1530.8 42.3769 1547.06 44.7498C1563.39 47.1227 1579.87 49.5067 1594.24 52.1776C1614.86 56.0184 1634.5 59.6274 1657.98 62.5411C1811.41 81.6126 2052.89 79.4053 2229.57 75.5534C2288.87 74.2621 2348.69 72.5956 2408.97 71.2932C2594.76 67.2869 2780.85 62.9494 2957.16 66.7682C3091.71 69.6598 3218.43 77.6614 3334.32 90.6076C3344.78 91.7885 3355.08 93.0246 3365.24 94.3159C3367.8 94.5477 3370.36 94.7574 3372.92 94.945C3392.94 96.3908 3413.03 96.2915 3433.04 95.3754C3487.98 90.0005 3541.03 84.8795 3595.96 82.2086C3646.83 79.7253 3699.13 79.3611 3756.17 83.0805C3779.42 83.7868 3802.9 84.3166 3826.9 84.5484C3850.91 84.7801 3875.36 84.7029 3900.5 84.1952" stroke="white" stroke-width="2" stroke-miterlimit="10"/>
<path d="M-7.67969 72.728C123.104 71.7899 242.902 63.1702 376.847 63.4792C406.345 63.5455 437.197 63.5234 469.329 63.5234C632.771 63.5234 826.088 62.7398 1037.92 62.508C1057.56 62.4859 1077.42 62.5411 1097.36 62.2321C1179.76 60.9518 1230.33 53.3806 1277.21 45.2245C1288.65 43.2379 1299.86 41.185 1311.22 39.1653C1329.58 35.8763 1347.12 32.5212 1368.34 29.8944C1404.68 25.3914 1452.09 22.3784 1496.64 26.7379C1515.9 28.6252 1532.76 30.9319 1548.86 33.36C1565.04 35.788 1581.37 38.2382 1595.52 40.9753C1615.91 44.9154 1635.25 48.6127 1658.58 51.6037C1810.96 71.1608 2053.56 68.8762 2229.95 64.8478C2289.32 63.4903 2349.07 61.7465 2409.42 60.3779C2594.99 56.1508 2781.83 52.2328 2958.22 56.1508C3092.69 59.1308 3219.78 66.9006 3335.07 80.1999C3345.45 81.4029 3355.69 82.6722 3365.84 83.9855C3368.4 84.2283 3370.96 84.438 3373.52 84.6257C3393.54 86.1046 3413.63 85.9942 3433.64 85.0561C3488.43 79.5708 3541.33 74.3504 3596.11 71.6575C3646.9 69.1632 3699.28 68.8541 3756.47 72.706C3779.72 73.4454 3803.27 74.0083 3827.28 74.2511C3851.28 74.4939 3875.74 74.4167 3900.87 73.8979" stroke="white" stroke-width="2" stroke-miterlimit="10"/>
<path d="M-7.53223 62.4193C123.402 61.437 243.501 52.4641 377.822 52.6959C407.47 52.7511 438.473 52.718 470.755 52.718C633.671 52.718 827.741 52.3317 1040.25 52.2103C1060.04 52.2103 1079.98 52.2655 1100.07 51.9454C1182.62 50.6651 1233.56 42.6414 1280.37 34.1652C1291.73 32.1124 1302.87 29.9933 1314.08 27.9184C1332.22 24.5412 1349.52 21.0977 1370.59 18.4158C1406.71 13.8134 1454.2 10.7231 1498.74 15.182C1517.93 17.1024 1534.71 19.4753 1550.67 21.9586C1566.69 24.4418 1582.95 26.9472 1596.87 29.7505C1617.04 33.7789 1636.15 37.5756 1659.33 40.6327C1810.73 60.6755 2054.39 58.3136 2230.4 54.0976C2289.77 52.6738 2349.59 50.8638 2410.02 49.418C2595.36 44.9591 2782.96 41.4715 2959.42 45.4889C3093.89 48.5461 3221.21 56.0952 3335.89 69.7366C3346.2 70.9728 3356.36 72.253 3366.52 73.5885C3369.08 73.8313 3371.64 74.052 3374.19 74.2396C3394.21 75.7406 3414.3 75.6303 3434.32 74.6811C3489.02 69.0744 3541.7 63.7547 3596.41 61.0618C3647.2 58.5564 3699.57 58.3136 3756.84 62.2868C3780.09 63.0704 3803.64 63.6554 3827.65 63.9203C3851.65 64.1852 3876.11 64.1079 3901.24 63.5671" stroke="white" stroke-width="2" stroke-miterlimit="10"/>
<path d="M-7.45117 52.1114C123.634 51.096 244.034 42.2666 378.656 41.9245H1042.43C1062.3 41.9245 1082.39 41.9024 1102.63 41.6816C1237.26 38.9556 1289.93 19.0894 1372.71 6.94897C1410.33 2.53427 1455.48 -0.776759 1500.63 3.63794C1519.44 5.65767 1536.37 8.01954 1552.25 10.558C1568.13 13.0964 1582.95 15.8115 1598 18.5265C1733.9 51.096 2027.38 47.785 2230.55 43.3703C2621.85 32.3335 3050.78 20.1931 3366.82 63.2364C3389.4 65.4438 3411.97 65.4438 3434.55 64.3401C3539.9 53.3033 3637.72 43.3703 3756.77 51.8906C3780.1 52.7074 3803.65 53.3365 3827.65 53.6124C3851.66 53.8883 3876.19 53.8221 3901.32 53.2592" stroke="white" stroke-width="2" stroke-miterlimit="10"/>
</g>
</svg>
